<svg xmlns="http://www.w3.org/2000/svg" viewBox="0 0 640 640">
  <path
    fill="currentColor"
    d="M292 131C292 111.7 276.3 96 257 96L217 96C197.7 96 182 111.7 182 131L182 173C182 192.3 197.7 208 217 208L257 208C276.3 208 292 192.3 292 173L292 131zM292 299C292 279.7 276.3 264 257 264L217 264C197.7 264 182 279.7 182 299L182 341C182 360.3 197.7 376 217 376L257 376C276.3 376 292 360.3 292 341L292 299zM182 467L182 509C182 528.3 197.7 544 217 544L257 544C276.3 544 292 528.3 292 509L292 467C292 447.7 276.3 432 257 432L217 432C197.7 432 182 447.7 182 467zM458 131C458 111.7 442.3 96 423 96L383 96C363.7 96 348 111.7 348 131L348 173C348 192.3 363.7 208 383 208L423 208C442.3 208 458 192.3 458 173L458 131zM348 299L348 341C348 360.3 363.7 376 383 376L423 376C442.3 376 458 360.3 458 341L458 299C458 279.7 442.3 264 423 264L383 264C363.7 264 348 279.7 348 299zM458 467C458 447.7 442.3 432 423 432L383 432C363.7 432 348 447.7 348 467L348 509C348 528.3 363.7 544 423 544L423 544C442.3 544 458 528.3 458 509L458 467z"
  />
</svg>
